<svg width="36" height="35" viewBox="0 0 36 35" fill="none" xmlns="http://www.w3.org/2000/svg">
<path fill-rule="evenodd" clip-rule="evenodd" d="M17.983 0C8.13386 0 0.171753 8.0208 0.171753 17.9436C0.171753 25.8755 5.27335 32.5896 12.3506 34.9659C13.2354 35.1446 13.5596 34.5799 13.5596 34.1048C13.5596 33.6888 13.5304 32.2629 13.5304 30.7773C8.57573 31.847 7.54396 28.6383 7.54396 28.6383C6.74772 26.5587 5.56793 26.0242 5.56793 26.0242C3.94627 24.925 5.68605 24.925 5.68605 24.925C7.4849 25.0439 8.4288 26.7669 8.4288 26.7669C10.0209 29.4998 12.5865 28.7276 13.6186 28.2522C13.7659 27.0935 14.238 26.2915 14.7393 25.8459C10.7876 25.4299 6.62996 23.8852 6.62996 16.9928C6.62996 15.0321 7.33724 13.4279 8.45797 12.1803C8.28115 11.7348 7.66172 9.89256 8.63516 7.4269C8.63516 7.4269 10.1391 6.95148 13.53 9.26876C14.9818 8.87599 16.479 8.67618 17.983 8.67449C19.4869 8.67449 21.02 8.88267 22.4357 9.26876C25.827 6.95148 27.3309 7.4269 27.3309 7.4269C28.3043 9.89256 27.6846 11.7348 27.5077 12.1803C28.658 13.4279 29.3361 15.0321 29.3361 16.9928C29.3361 23.8852 25.1784 25.4001 21.1972 25.8459C21.8461 26.4103 22.4061 27.4796 22.4061 29.1731C22.4061 31.5793 22.377 33.5105 22.377 34.1044C22.377 34.5799 22.7015 35.1446 23.5859 34.9663C30.6632 32.5892 35.7648 25.8755 35.7648 17.9436C35.7939 8.0208 27.8027 0 17.983 0Z" fill="white"/>
</svg>
