<svg width="54" height="35" viewBox="0 0 54 35" fill="none" xmlns="http://www.w3.org/2000/svg">
<path d="M0.764797 0.0313225C6.19764 9.02794 9.07281 13.8482 9.03703 13.9063C8.83582 14.2327 0.827398 27.8842 0.809512 27.9289C0.791626 27.9825 1.56519 27.9915 5.85334 27.9825L10.9195 27.9691L12.4309 25.331C13.2626 23.8777 13.9601 22.6928 13.978 22.6928C13.9959 22.6973 14.6845 23.8822 15.5117 25.331L17.0142 27.9691L22.1295 27.9781L27.2449 27.9915L31.7387 24.7675C36.1923 21.5749 36.2326 21.5481 36.2996 21.6465C36.3354 21.7001 37.2118 23.1489 38.2492 24.857L40.1317 27.9691L46.9105 27.9825L53.6937 27.9915V17.4388C53.6937 11.6348 53.6803 6.8861 53.6624 6.8861C53.64 6.89057 51.6771 8.26332 49.2893 9.94012L44.952 12.9897L44.9296 16.075L44.9072 19.1603L43.6105 17.0051C42.7788 15.6189 42.3004 14.8632 42.2646 14.8811C42.2378 14.899 39.4163 16.8799 35.9911 19.29C32.566 21.6956 29.7579 23.6542 29.7489 23.6452C29.7355 23.6318 30.1424 22.9387 30.6566 22.0981L31.5822 20.5733L36.5232 17.0542C39.2419 15.1181 41.4731 13.5262 41.4821 13.5173C41.5223 13.486 41.263 13.0791 41.2049 13.0836C41.1736 13.088 39.1167 14.5144 36.6395 16.2539C34.1623 17.9933 32.1278 19.4062 32.1188 19.3973C32.1054 19.3884 32.5168 18.6953 33.0265 17.8591L33.9521 16.3433L37.1269 14.0718C38.8752 12.8242 40.3329 11.7868 40.3687 11.7645C40.4268 11.7242 40.4268 11.7019 40.3553 11.5722C40.163 11.2145 40.4536 11.049 37.2655 13.2982C34.0237 15.5831 34.2875 15.3998 34.2875 15.3506C34.2875 15.3327 34.6989 14.6396 35.1997 13.8169L36.1163 12.3189L37.7395 11.1519C38.6338 10.508 39.3581 9.96695 39.3537 9.94012C39.3492 9.91776 38.0122 7.67755 36.3846 4.96784L33.429 0.0357933L32.9505 0.836187C32.6912 1.27886 30.1514 5.57596 27.312 10.3873C23.471 16.8933 22.134 19.1201 22.0982 19.0798C22.0133 18.9904 19.071 13.8929 19.071 13.8348C19.071 13.808 20.8865 10.7003 23.1088 6.92634C25.3266 3.15241 27.1555 0.0536785 27.1644 0.0313225C27.1734 0.0134354 24.9197 2.09808e-05 22.1564 2.09808e-05H17.1349L15.5251 2.45934C14.6443 3.80972 13.902 4.90971 13.8796 4.90524C13.8573 4.89629 13.1597 3.79184 12.3236 2.44592L10.8033 2.09808e-05H5.77285C3.00948 2.09808e-05 0.755854 0.0134354 0.764797 0.0313225Z" fill="white"/>
<path d="M44.9296 3.00038C44.9296 5.38815 44.943 5.9918 44.9877 5.9605C45.0637 5.91578 53.0632 0.183347 53.1973 0.0805025C53.3002 1.57356e-05 53.1929 1.57356e-05 49.1149 1.57356e-05H44.9296V3.00038Z" fill="white"/>
<path d="M49.2893 4.8471L44.952 7.89665L44.9385 8.17388C44.9296 8.32591 44.9385 8.45111 44.952 8.45111C44.9654 8.45111 46.9418 7.05154 49.3385 5.33896L53.6937 2.22681V2.00771C53.6937 1.88698 53.6803 1.78861 53.6624 1.79308C53.64 1.79308 51.6771 3.16582 49.2893 4.8471Z" fill="white"/>
<path d="M49.2892 7.36007L44.9519 10.423L44.9385 10.736L44.925 11.049L45.0771 10.9462C45.162 10.8881 47.134 9.48402 49.4591 7.8251L53.6936 4.81133V4.55198C53.6936 4.40889 53.6802 4.29263 53.6623 4.29711C53.64 4.29711 51.677 5.67879 49.2892 7.36007Z" fill="white"/>
<path d="M2.85277 34.0515C2.48077 34.0515 2.16477 33.9875 1.90477 33.8595C1.64877 33.7275 1.45277 33.5415 1.31677 33.3015C1.18077 33.0575 1.10477 32.7655 1.08877 32.4255C1.08477 32.2615 1.08277 32.0855 1.08277 31.8975C1.08277 31.7095 1.08477 31.5295 1.08877 31.3575C1.10477 31.0215 1.18077 30.7315 1.31677 30.4875C1.45677 30.2435 1.65477 30.0575 1.91077 29.9295C2.17077 29.7975 2.48477 29.7315 2.85277 29.7315C3.12477 29.7315 3.36877 29.7675 3.58477 29.8395C3.80077 29.9115 3.98477 30.0115 4.13677 30.1395C4.28877 30.2635 4.40677 30.4095 4.49077 30.5775C4.57477 30.7455 4.61877 30.9275 4.62277 31.1235C4.62677 31.1595 4.61477 31.1895 4.58677 31.2135C4.56277 31.2375 4.53277 31.2495 4.49677 31.2495H3.92677C3.88277 31.2495 3.84677 31.2395 3.81877 31.2195C3.79077 31.1955 3.77077 31.1575 3.75877 31.1055C3.69477 30.8415 3.58477 30.6615 3.42877 30.5655C3.27277 30.4695 3.07877 30.4215 2.84677 30.4215C2.57877 30.4215 2.36477 30.4975 2.20477 30.6495C2.04477 30.7975 1.95877 31.0435 1.94677 31.3875C1.93477 31.7155 1.93477 32.0515 1.94677 32.3955C1.95877 32.7395 2.04477 32.9875 2.20477 33.1395C2.36477 33.2875 2.57877 33.3615 2.84677 33.3615C3.07877 33.3615 3.27277 33.3135 3.42877 33.2175C3.58477 33.1175 3.69477 32.9375 3.75877 32.6775C3.77077 32.6215 3.79077 32.5835 3.81877 32.5635C3.84677 32.5435 3.88277 32.5335 3.92677 32.5335H4.49677C4.53277 32.5335 4.56277 32.5455 4.58677 32.5695C4.61477 32.5935 4.62677 32.6235 4.62277 32.6595C4.61877 32.8555 4.57477 33.0375 4.49077 33.2055C4.40677 33.3735 4.28877 33.5215 4.13677 33.6495C3.98477 33.7735 3.80077 33.8715 3.58477 33.9435C3.36877 34.0155 3.12477 34.0515 2.85277 34.0515ZM5.47833 33.9915C5.43833 33.9915 5.40433 33.9775 5.37633 33.9495C5.34833 33.9215 5.33433 33.8855 5.33433 33.8415V29.9415C5.33433 29.8975 5.34833 29.8615 5.37633 29.8335C5.40433 29.8055 5.44033 29.7915 5.48433 29.7915H6.02433C6.06833 29.7915 6.10233 29.8055 6.12633 29.8335C6.15433 29.8615 6.16833 29.8975 6.16833 29.9415V32.6955L8.14233 29.8875C8.15833 29.8675 8.18033 29.8475 8.20833 29.8275C8.23633 29.8035 8.27233 29.7915 8.31633 29.7915H8.81433C8.85433 29.7915 8.88833 29.8055 8.91633 29.8335C8.94433 29.8615 8.95833 29.8975 8.95833 29.9415V33.8475C8.95833 33.8875 8.94433 33.9215 8.91633 33.9495C8.88833 33.9775 8.85433 33.9915 8.81433 33.9915H8.27433C8.23033 33.9915 8.19433 33.9775 8.16633 33.9495C8.13833 33.9215 8.12433 33.8875 8.12433 33.8475V31.1475L6.15633 33.8955C6.14433 33.9115 6.12433 33.9315 6.09633 33.9555C6.06833 33.9795 6.03033 33.9915 5.98233 33.9915H5.47833ZM11.5129 34.0515C11.1409 34.0515 10.8249 33.9875 10.5649 33.8595C10.3089 33.7275 10.1129 33.5415 9.97693 33.3015C9.84093 33.0575 9.76493 32.7655 9.74893 32.4255C9.74493 32.2615 9.74293 32.0855 9.74293 31.8975C9.74293 31.7095 9.74493 31.5295 9.74893 31.3575C9.76493 31.0215 9.84093 30.7315 9.97693 30.4875C10.1169 30.2435 10.3149 30.0575 10.5709 29.9295C10.8309 29.7975 11.1449 29.7315 11.5129 29.7315C11.7849 29.7315 12.0289 29.7675 12.2449 29.8395C12.4609 29.9115 12.6449 30.0115 12.7969 30.1395C12.9489 30.2635 13.0669 30.4095 13.1509 30.5775C13.2349 30.7455 13.2789 30.9275 13.2829 31.1235C13.2869 31.1595 13.2749 31.1895 13.2469 31.2135C13.2229 31.2375 13.1929 31.2495 13.1569 31.2495H12.5869C12.5429 31.2495 12.5069 31.2395 12.4789 31.2195C12.4509 31.1955 12.4309 31.1575 12.4189 31.1055C12.3549 30.8415 12.2449 30.6615 12.0889 30.5655C11.9329 30.4695 11.7389 30.4215 11.5069 30.4215C11.2389 30.4215 11.0249 30.4975 10.8649 30.6495C10.7049 30.7975 10.6189 31.0435 10.6069 31.3875C10.5949 31.7155 10.5949 32.0515 10.6069 32.3955C10.6189 32.7395 10.7049 32.9875 10.8649 33.1395C11.0249 33.2875 11.2389 33.3615 11.5069 33.3615C11.7389 33.3615 11.9329 33.3135 12.0889 33.2175C12.2449 33.1175 12.3549 32.9375 12.4189 32.6775C12.4309 32.6215 12.4509 32.5835 12.4789 32.5635C12.5069 32.5435 12.5429 32.5335 12.5869 32.5335H13.1569C13.1929 32.5335 13.2229 32.5455 13.2469 32.5695C13.2749 32.5935 13.2869 32.6235 13.2829 32.6595C13.2789 32.8555 13.2349 33.0375 13.1509 33.2055C13.0669 33.3735 12.9489 33.5215 12.7969 33.6495C12.6449 33.7735 12.4609 33.8715 12.2449 33.9435C12.0289 34.0155 11.7849 34.0515 11.5129 34.0515ZM15.0625 33.9915C15.0225 33.9915 14.9885 33.9775 14.9605 33.9495C14.9325 33.9215 14.9185 33.8875 14.9185 33.8475V30.5295H13.8085C13.7685 30.5295 13.7345 30.5155 13.7065 30.4875C13.6785 30.4595 13.6645 30.4255 13.6645 30.3855V29.9415C13.6645 29.8975 13.6785 29.8615 13.7065 29.8335C13.7345 29.8055 13.7685 29.7915 13.8085 29.7915H16.8685C16.9125 29.7915 16.9485 29.8055 16.9765 29.8335C17.0045 29.8615 17.0185 29.8975 17.0185 29.9415V30.3855C17.0185 30.4255 17.0045 30.4595 16.9765 30.4875C16.9485 30.5155 16.9125 30.5295 16.8685 30.5295H15.7645V33.8475C15.7645 33.8875 15.7505 33.9215 15.7225 33.9495C15.6945 33.9775 15.6585 33.9915 15.6145 33.9915H15.0625ZM17.7713 33.9915C17.7313 33.9915 17.6973 33.9775 17.6693 33.9495C17.6413 33.9215 17.6273 33.8875 17.6273 33.8475V29.9415C17.6273 29.8975 17.6413 29.8615 17.6693 29.8335C17.6973 29.8055 17.7313 29.7915 17.7713 29.7915H20.4113C20.4553 29.7915 20.4913 29.8055 20.5193 29.8335C20.5473 29.8615 20.5613 29.8975 20.5613 29.9415V30.3375C20.5613 30.3775 20.5473 30.4115 20.5193 30.4395C20.4913 30.4675 20.4553 30.4815 20.4113 30.4815H18.4373V31.5435H20.2793C20.3233 31.5435 20.3593 31.5575 20.3873 31.5855C20.4153 31.6095 20.4293 31.6435 20.4293 31.6875V32.0595C20.4293 32.1035 20.4153 32.1395 20.3873 32.1675C20.3593 32.1915 20.3233 32.2035 20.2793 32.2035H18.4373V33.3015H20.4593C20.5033 33.3015 20.5393 33.3155 20.5673 33.3435C20.5953 33.3715 20.6093 33.4075 20.6093 33.4515V33.8475C20.6093 33.8875 20.5953 33.9215 20.5673 33.9495C20.5393 33.9775 20.5033 33.9915 20.4593 33.9915H17.7713ZM21.5097 33.9915C21.4657 33.9915 21.4297 33.9775 21.4017 33.9495C21.3737 33.9215 21.3597 33.8875 21.3597 33.8475V29.9415C21.3597 29.8975 21.3737 29.8615 21.4017 29.8335C21.4297 29.8055 21.4657 29.7915 21.5097 29.7915H21.9837C22.0397 29.7915 22.0817 29.8075 22.1097 29.8395C22.1377 29.8675 22.1557 29.8895 22.1637 29.9055L23.3217 32.0655L24.4917 29.9055C24.4997 29.8895 24.5177 29.8675 24.5457 29.8395C24.5737 29.8075 24.6157 29.7915 24.6717 29.7915H25.1397C25.1837 29.7915 25.2197 29.8055 25.2477 29.8335C25.2757 29.8615 25.2897 29.8975 25.2897 29.9415V33.8475C25.2897 33.8875 25.2757 33.9215 25.2477 33.9495C25.2197 33.9775 25.1837 33.9915 25.1397 33.9915H24.6357C24.5917 33.9915 24.5557 33.9775 24.5277 33.9495C24.5037 33.9215 24.4917 33.8875 24.4917 33.8475V31.2495L23.6517 32.8515C23.6317 32.8875 23.6057 32.9195 23.5737 32.9475C23.5417 32.9715 23.4997 32.9835 23.4477 32.9835H23.2017C23.1457 32.9835 23.1017 32.9715 23.0697 32.9475C23.0417 32.9195 23.0177 32.8875 22.9977 32.8515L22.1577 31.2495V33.8475C22.1577 33.8875 22.1437 33.9215 22.1157 33.9495C22.0877 33.9775 22.0537 33.9915 22.0137 33.9915H21.5097ZM25.965 33.9915C25.933 33.9915 25.903 33.9795 25.875 33.9555C25.851 33.9315 25.839 33.9015 25.839 33.8655C25.839 33.8495 25.843 33.8315 25.851 33.8115L27.297 29.9415C27.309 29.9015 27.331 29.8675 27.363 29.8395C27.399 29.8075 27.447 29.7915 27.507 29.7915H28.161C28.221 29.7915 28.267 29.8075 28.299 29.8395C28.331 29.8675 28.355 29.9015 28.371 29.9415L29.817 33.8115C29.821 33.8315 29.823 33.8495 29.823 33.8655C29.823 33.9015 29.811 33.9315 29.787 33.9555C29.763 33.9795 29.735 33.9915 29.703 33.9915H29.181C29.125 33.9915 29.083 33.9795 29.055 33.9555C29.031 33.9275 29.015 33.9015 29.007 33.8775L28.725 33.1455H26.943L26.661 33.8775C26.653 33.9015 26.635 33.9275 26.607 33.9555C26.583 33.9795 26.543 33.9915 26.487 33.9915H25.965ZM27.153 32.4555H28.515L27.831 30.6015L27.153 32.4555ZM32.7803 31.0695C32.7483 31.0695 32.7223 31.0595 32.7023 31.0395C32.6823 31.0155 32.6723 30.9875 32.6723 30.9555C32.6723 30.9275 32.6783 30.9015 32.6903 30.8775L33.0743 29.8815C33.0943 29.8415 33.1183 29.8075 33.1463 29.7795C33.1743 29.7475 33.2163 29.7315 33.2723 29.7315H33.5783C33.6143 29.7315 33.6423 29.7435 33.6623 29.7675C33.6823 29.7915 33.6883 29.8235 33.6803 29.8635L33.5243 30.8775C33.5203 30.9255 33.5023 30.9695 33.4703 31.0095C33.4383 31.0495 33.3923 31.0695 33.3323 31.0695H32.7803ZM31.6403 31.0695C31.6083 31.0695 31.5823 31.0595 31.5623 31.0395C31.5423 31.0155 31.5323 30.9875 31.5323 30.9555C31.5323 30.9275 31.5383 30.9015 31.5503 30.8775L31.9343 29.8815C31.9543 29.8415 31.9783 29.8075 32.0063 29.7795C32.0343 29.7475 32.0763 29.7315 32.1323 29.7315H32.4383C32.4703 29.7315 32.4963 29.7435 32.5163 29.7675C32.5403 29.7915 32.5483 29.8235 32.5403 29.8635L32.3843 30.8775C32.3803 30.9255 32.3623 30.9695 32.3303 31.0095C32.2983 31.0495 32.2523 31.0695 32.1923 31.0695H31.6403ZM34.5584 33.9915C34.5184 33.9915 34.4844 33.9775 34.4564 33.9495C34.4284 33.9215 34.4144 33.8875 34.4144 33.8475V29.9415C34.4144 29.8975 34.4284 29.8615 34.4564 29.8335C34.4844 29.8055 34.5184 29.7915 34.5584 29.7915H36.1664C36.4784 29.7915 36.7504 29.8415 36.9824 29.9415C37.2144 30.0375 37.3944 30.1855 37.5224 30.3855C37.6504 30.5815 37.7144 30.8275 37.7144 31.1235C37.7144 31.4235 37.6504 31.6715 37.5224 31.8675C37.3944 32.0595 37.2144 32.2035 36.9824 32.2995C36.7504 32.3955 36.4784 32.4435 36.1664 32.4435H35.2724V33.8475C35.2724 33.8875 35.2584 33.9215 35.2304 33.9495C35.2064 33.9775 35.1724 33.9915 35.1284 33.9915H34.5584ZM35.2604 31.7775H36.1364C36.3684 31.7775 36.5464 31.7235 36.6704 31.6155C36.7944 31.5035 36.8564 31.3395 36.8564 31.1235C36.8564 30.9235 36.7984 30.7635 36.6824 30.6435C36.5664 30.5195 36.3844 30.4575 36.1364 30.4575H35.2604V31.7775ZM38.5135 33.9915C38.4735 33.9915 38.4395 33.9775 38.4115 33.9495C38.3835 33.9215 38.3695 33.8875 38.3695 33.8475V29.9355C38.3695 29.8955 38.3835 29.8615 38.4115 29.8335C38.4395 29.8055 38.4735 29.7915 38.5135 29.7915H39.0775C39.1215 29.7915 39.1555 29.8055 39.1795 29.8335C39.2075 29.8615 39.2215 29.8955 39.2215 29.9355V33.8475C39.2215 33.8875 39.2075 33.9215 39.1795 33.9495C39.1555 33.9775 39.1215 33.9915 39.0775 33.9915H38.5135ZM40.3065 33.9915C40.2665 33.9915 40.2325 33.9775 40.2045 33.9495C40.1765 33.9215 40.1625 33.8875 40.1625 33.8475V29.9355C40.1625 29.8955 40.1765 29.8615 40.2045 29.8335C40.2325 29.8055 40.2665 29.7915 40.3065 29.7915H40.8645C40.9045 29.7915 40.9385 29.8055 40.9665 29.8335C40.9945 29.8615 41.0085 29.8955 41.0085 29.9355V33.2775H42.9105C42.9545 33.2775 42.9905 33.2915 43.0185 33.3195C43.0465 33.3475 43.0605 33.3835 43.0605 33.4275V33.8475C43.0605 33.8875 43.0465 33.9215 43.0185 33.9495C42.9905 33.9775 42.9545 33.9915 42.9105 33.9915H40.3065ZM45.2042 34.0515C44.8482 34.0515 44.5422 33.9935 44.2862 33.8775C44.0302 33.7575 43.8302 33.5755 43.6862 33.3315C43.5422 33.0835 43.4642 32.7755 43.4522 32.4075C43.4482 32.2355 43.4462 32.0655 43.4462 31.8975C43.4462 31.7295 43.4482 31.5575 43.4522 31.3815C43.4642 31.0175 43.5442 30.7135 43.6922 30.4695C43.8402 30.2255 44.0422 30.0415 44.2982 29.9175C44.5582 29.7935 44.8602 29.7315 45.2042 29.7315C45.5482 29.7315 45.8502 29.7935 46.1102 29.9175C46.3702 30.0415 46.5742 30.2255 46.7222 30.4695C46.8702 30.7135 46.9502 31.0175 46.9622 31.3815C46.9702 31.5575 46.9742 31.7295 46.9742 31.8975C46.9742 32.0655 46.9702 32.2355 46.9622 32.4075C46.9502 32.7755 46.8722 33.0835 46.7282 33.3315C46.5842 33.5755 46.3822 33.7575 46.1222 33.8775C45.8662 33.9935 45.5602 34.0515 45.2042 34.0515ZM45.2042 33.3615C45.4642 33.3615 45.6762 33.2855 45.8402 33.1335C46.0042 32.9775 46.0922 32.7255 46.1042 32.3775C46.1122 32.2015 46.1162 32.0395 46.1162 31.8915C46.1162 31.7395 46.1122 31.5775 46.1042 31.4055C46.0962 31.1735 46.0522 30.9855 45.9722 30.8415C45.8962 30.6935 45.7922 30.5875 45.6602 30.5235C45.5282 30.4555 45.3762 30.4215 45.2042 30.4215C45.0362 30.4215 44.8862 30.4555 44.7542 30.5235C44.6222 30.5875 44.5162 30.6935 44.4362 30.8415C44.3602 30.9855 44.3182 31.1735 44.3102 31.4055C44.3062 31.5775 44.3042 31.7395 44.3042 31.8915C44.3042 32.0395 44.3062 32.2015 44.3102 32.3775C44.3222 32.7255 44.4102 32.9775 44.5742 33.1335C44.7382 33.2855 44.9482 33.3615 45.2042 33.3615ZM48.7539 33.9915C48.7139 33.9915 48.6799 33.9775 48.6519 33.9495C48.6239 33.9215 48.6099 33.8875 48.6099 33.8475V30.5295H47.4999C47.4599 30.5295 47.4259 30.5155 47.3979 30.4875C47.3699 30.4595 47.3559 30.4255 47.3559 30.3855V29.9415C47.3559 29.8975 47.3699 29.8615 47.3979 29.8335C47.4259 29.8055 47.4599 29.7915 47.4999 29.7915H50.5599C50.6039 29.7915 50.6399 29.8055 50.6679 29.8335C50.6959 29.8615 50.7099 29.8975 50.7099 29.9415V30.3855C50.7099 30.4255 50.6959 30.4595 50.6679 30.4875C50.6399 30.5155 50.6039 30.5295 50.5599 30.5295H49.4559V33.8475C49.4559 33.8875 49.4419 33.9215 49.4139 33.9495C49.3859 33.9775 49.3499 33.9915 49.3059 33.9915H48.7539ZM52.3927 31.0695C52.3567 31.0695 52.3287 31.0575 52.3087 31.0335C52.2887 31.0055 52.2807 30.9735 52.2847 30.9375L52.4467 29.9235C52.4547 29.8715 52.4727 29.8275 52.5007 29.7915C52.5327 29.7515 52.5787 29.7315 52.6387 29.7315H53.1907C53.2227 29.7315 53.2487 29.7435 53.2687 29.7675C53.2887 29.7875 53.2987 29.8115 53.2987 29.8395C53.2987 29.8675 53.2927 29.8955 53.2807 29.9235L52.8967 30.9135C52.8807 30.9535 52.8567 30.9895 52.8247 31.0215C52.7967 31.0535 52.7547 31.0695 52.6987 31.0695H52.3927ZM51.2527 31.0695C51.2167 31.0695 51.1887 31.0575 51.1687 31.0335C51.1487 31.0055 51.1407 30.9735 51.1447 30.9375L51.3067 29.9235C51.3147 29.8715 51.3327 29.8275 51.3607 29.7915C51.3927 29.7515 51.4387 29.7315 51.4987 29.7315H52.0507C52.0827 29.7315 52.1087 29.7435 52.1287 29.7675C52.1487 29.7875 52.1587 29.8115 52.1587 29.8395C52.1587 29.8675 52.1527 29.8955 52.1407 29.9235L51.7567 30.9135C51.7407 30.9535 51.7167 30.9895 51.6847 31.0215C51.6567 31.0535 51.6147 31.0695 51.5587 31.0695H51.2527Z" fill="white"/>
</svg>
